<svg width="170" height="25" data-v-423bf9ae="" xmlns="http://www.w3.org/2000/svg" viewBox="0 0 741 90" class="iconLeft"><!----><!----><!----><g data-v-423bf9ae="" id="2f6f6ca4-9d94-45bc-809a-ad92b006db3c" fill="white" transform="matrix(5.830903811703725,0,0,5.830903811703725,188.30279907596213,2.3469397142517323)"><path d="M0.94 12.29L0.94 4.93L1.88 4.93L2.02 5.92L2.11 5.92Q2.93 4.76 4.59 4.76L4.59 4.76Q5.70 4.76 6.29 5.35Q6.89 5.95 6.89 7.27L6.89 7.27L6.89 12.29L5.66 12.29L5.66 7.35Q5.66 6.47 5.26 6.13Q4.87 5.78 4.13 5.78L4.13 5.78Q3.60 5.78 3.15 6.04Q2.70 6.30 2.44 6.79Q2.17 7.28 2.17 7.94L2.17 7.94L2.17 12.29L0.94 12.29ZM10.72 12.46Q9.77 12.46 9.03 12.01Q8.29 11.56 8.29 10.39L8.29 10.39Q8.29 8.97 9.55 8.45Q10.81 7.92 13.19 7.92L13.19 7.92L13.19 7.11Q13.19 6.47 12.82 6.13Q12.46 5.78 11.51 5.78L11.51 5.78Q10.61 5.78 10.23 6.12Q9.84 6.45 9.84 6.94L9.84 6.94L9.84 7.11L8.65 7.11Q8.64 7.03 8.64 6.80L8.64 6.80Q8.64 5.82 9.45 5.29Q10.26 4.76 11.62 4.76L11.62 4.76Q12.99 4.76 13.71 5.33Q14.42 5.91 14.42 6.96L14.42 6.96L14.42 10.95Q14.42 11.20 14.56 11.32Q14.70 11.44 14.91 11.44L14.91 11.44L15.47 11.44L15.47 12.24Q15.11 12.40 14.52 12.40L14.52 12.40Q14.04 12.40 13.72 12.12Q13.40 11.83 13.29 11.35L13.29 11.35L13.19 11.35Q12.81 11.87 12.16 12.17Q11.51 12.46 10.72 12.46L10.72 12.46ZM11.05 11.44Q11.59 11.44 12.08 11.21Q12.57 10.99 12.88 10.55Q13.19 10.11 13.19 9.48L13.19 9.48L13.19 8.95Q11.38 8.95 10.48 9.23Q9.58 9.52 9.58 10.32L9.58 10.32Q9.58 10.92 9.95 11.18Q10.32 11.44 11.05 11.44L11.05 11.44ZM18.17 12.45Q17.42 12.45 17.07 12.00Q16.72 11.55 16.72 10.89L16.72 10.89L16.72 5.95L15.82 5.95L15.82 4.93L16.73 4.93L17.00 2.88L17.95 2.88L17.95 4.93L19.19 4.93L19.19 5.95L17.95 5.95L17.95 10.78Q17.95 11.44 18.56 11.44L18.56 11.44L19.19 11.44L19.19 12.25Q19.01 12.33 18.72 12.39Q18.42 12.45 18.17 12.45L18.17 12.45ZM20.40 12.29L20.40 2.17L21.63 2.17L21.63 5.75L21.73 5.75Q22.50 4.76 24.05 4.76L24.05 4.76Q26.35 4.76 26.35 7.27L26.35 7.27L26.35 12.29L25.12 12.29L25.12 7.35Q25.12 6.47 24.72 6.13Q24.33 5.78 23.59 5.78L23.59 5.78Q23.06 5.78 22.61 6.04Q22.16 6.30 21.90 6.79Q21.63 7.28 21.63 7.94L21.63 7.94L21.63 12.29L20.40 12.29ZM30.18 12.46Q29.23 12.46 28.49 12.01Q27.75 11.56 27.75 10.39L27.75 10.39Q27.75 8.97 29.01 8.45Q30.27 7.92 32.65 7.92L32.65 7.92L32.65 7.11Q32.65 6.47 32.28 6.13Q31.92 5.78 30.97 5.78L30.97 5.78Q30.07 5.78 29.69 6.12Q29.30 6.45 29.30 6.94L29.30 6.94L29.30 7.11L28.11 7.11Q28.10 7.03 28.10 6.80L28.10 6.80Q28.10 5.82 28.91 5.29Q29.72 4.76 31.08 4.76L31.08 4.76Q32.45 4.76 33.17 5.33Q33.88 5.91 33.88 6.96L33.88 6.96L33.88 10.95Q33.88 11.20 34.02 11.32Q34.16 11.44 34.37 11.44L34.37 11.44L34.93 11.44L34.93 12.24Q34.57 12.40 33.98 12.40L33.98 12.40Q33.50 12.40 33.18 12.12Q32.86 11.83 32.75 11.35L32.75 11.35L32.65 11.35Q32.27 11.87 31.62 12.17Q30.97 12.46 30.18 12.46L30.18 12.46ZM30.51 11.44Q31.05 11.44 31.54 11.21Q32.03 10.99 32.34 10.55Q32.65 10.11 32.65 9.48L32.65 9.48L32.65 8.95Q30.84 8.95 29.94 9.23Q29.04 9.52 29.04 10.32L29.04 10.32Q29.04 10.92 29.41 11.18Q29.78 11.44 30.51 11.44L30.51 11.44ZM35.97 12.29L35.97 4.93L36.90 4.93L37.04 5.92L37.14 5.92Q37.95 4.76 39.62 4.76L39.62 4.76Q40.73 4.76 41.32 5.35Q41.92 5.95 41.92 7.27L41.92 7.27L41.92 12.29L40.68 12.29L40.68 7.35Q40.68 6.47 40.29 6.13Q39.90 5.78 39.16 5.78L39.16 5.78Q38.63 5.78 38.18 6.04Q37.73 6.30 37.46 6.79Q37.20 7.28 37.20 7.94L37.20 7.94L37.20 12.29L35.97 12.29ZM45.09 12.29L42.88 4.93L44.16 4.93L45.29 9.10Q45.40 9.53 45.53 10.08Q45.67 10.63 45.72 10.84L45.72 10.84L45.79 10.84L46.16 9.10L47.12 4.93L48.62 4.93L49.64 9.10Q49.74 9.53 49.86 10.08Q49.98 10.63 50.02 10.84L50.02 10.84L50.09 10.84Q50.13 10.63 50.26 10.09Q50.39 9.56 50.51 9.10L50.51 9.10L51.63 4.93L52.84 4.93L50.62 12.29L49.28 12.29L48.22 7.90L47.88 6.38L47.82 6.38Q47.78 6.57 47.69 7.03Q47.60 7.49 47.50 7.90L47.50 7.90L46.45 12.29L45.09 12.29ZM56.98 12.46Q55.20 12.46 54.33 11.52Q53.47 10.58 53.47 8.61L53.47 8.61Q53.47 6.64 54.33 5.70Q55.20 4.76 56.98 4.76L56.98 4.76Q58.58 4.76 59.37 5.61Q60.16 6.45 60.16 8.33L60.16 8.33L60.16 8.95L54.74 8.95Q54.81 10.22 55.35 10.83Q55.89 11.44 56.98 11.44L56.98 11.44Q57.86 11.44 58.41 11.03Q58.95 10.63 58.95 9.79L58.95 9.79L60.16 9.79Q60.16 11.07 59.27 11.77Q58.38 12.46 56.98 12.46L56.98 12.46ZM54.77 7.92L58.87 7.92Q58.87 5.78 56.98 5.78L56.98 5.78Q55.93 5.78 55.41 6.29Q54.88 6.79 54.77 7.92L54.77 7.92ZM65.09 12.46Q64.36 12.46 63.76 12.17Q63.17 11.87 62.80 11.30L62.80 11.30L62.72 11.30L62.57 12.29L61.64 12.29L61.64 2.17L62.87 2.17L62.87 5.77L62.96 5.77Q63.32 5.24 63.87 5.00Q64.41 4.76 65.20 4.76L65.20 4.76Q66.50 4.76 67.25 5.72Q68.00 6.68 68.00 8.61L68.00 8.61Q68.00 10.58 67.24 11.52Q66.49 12.46 65.09 12.46L65.09 12.46ZM64.78 11.44Q65.49 11.44 65.91 11.17Q66.33 10.91 66.53 10.30Q66.72 9.70 66.72 8.67L66.72 8.67L66.72 8.61Q66.72 7.56 66.53 6.94Q66.33 6.33 65.91 6.05Q65.48 5.78 64.78 5.78L64.78 5.78Q63.80 5.78 63.34 6.50Q62.87 7.21 62.87 8.61L62.87 8.61L62.87 8.67Q62.87 10.04 63.33 10.74Q63.78 11.44 64.78 11.44L64.78 11.44ZM69.76 12.29L69.76 10.78L71.16 10.78L71.16 12.29L69.76 12.29ZM75.78 12.46Q74.38 12.46 73.63 11.52Q72.87 10.58 72.87 8.61L72.87 8.61Q72.87 6.68 73.62 5.72Q74.37 4.76 75.67 4.76L75.67 4.76Q76.45 4.76 77 5.00Q77.55 5.24 77.91 5.77L77.91 5.77L77.99 5.77L77.99 2.17L79.23 2.17L79.23 12.29L78.30 12.29L78.15 11.30L78.06 11.30Q77.70 11.87 77.10 12.17Q76.51 12.46 75.78 12.46L75.78 12.46ZM76.09 11.44Q77.08 11.44 77.54 10.74Q77.99 10.04 77.99 8.67L77.99 8.67L77.99 8.61Q77.99 7.21 77.53 6.50Q77.07 5.78 76.09 5.78L76.09 5.78Q75.39 5.78 74.96 6.05Q74.54 6.33 74.34 6.94Q74.14 7.56 74.14 8.61L74.14 8.61L74.14 8.67Q74.14 9.70 74.34 10.30Q74.54 10.91 74.96 11.17Q75.38 11.44 76.09 11.44L76.09 11.44ZM84.22 12.46Q82.45 12.46 81.58 11.52Q80.71 10.58 80.71 8.61L80.71 8.61Q80.71 6.64 81.58 5.70Q82.45 4.76 84.22 4.76L84.22 4.76Q85.82 4.76 86.61 5.61Q87.40 6.45 87.40 8.33L87.40 8.33L87.40 8.95L81.98 8.95Q82.05 10.22 82.59 10.83Q83.13 11.44 84.22 11.44L84.22 11.44Q85.11 11.44 85.65 11.03Q86.20 10.63 86.20 9.79L86.20 9.79L87.40 9.79Q87.40 11.07 86.51 11.77Q85.62 12.46 84.22 12.46L84.22 12.46ZM82.01 7.92L86.11 7.92Q86.11 5.78 84.22 5.78L84.22 5.78Q83.17 5.78 82.65 6.29Q82.12 6.79 82.01 7.92L82.01 7.92ZM90.83 12.29L88.13 4.93L89.43 4.93L90.73 8.61Q90.92 9.13 91.15 9.90Q91.39 10.67 91.46 10.92L91.46 10.92L91.53 10.92Q91.60 10.68 91.83 9.93Q92.05 9.18 92.25 8.61L92.25 8.61L93.53 4.93L94.77 4.93L92.06 12.29L90.83 12.29Z"></path></g><!----><g data-v-423bf9ae="" id="09c4b937-9f4a-419f-b6ac-a02ee499fd7b" transform="matrix(2.3982093448291986,0,0,2.3982093448291986,-32.1424721666334,-82.21305778597768)" stroke="none" fill="white"><path stroke-width="1.5" stroke-linecap="round" stroke-linejoin="round" stroke-miterlimit="10" d="M27.897 72.008l25.008-37.526 25.009 37.526M13.768 72.01l19.477-29.225 7.062 10.596M70.207 60.443l4.158-6.24L86.232 72.01M13.768 72.01h72.464"></path></g><!----></svg>