<svg width="170" height="25"
 data-v-423bf9ae="" xmlns="http://www.w3.org/2000/svg" viewBox="0 0 645 90" class="iconLeft"><!----><!----><!----><g data-v-423bf9ae="" id="ee17da88-e97c-4aff-95f0-6aaca7e6fc66" fill="white" transform="matrix(5.429864628294837,0,0,5.429864628294837,116.19127026679575,3.162896416764738)"><path d="M1.12 13.05L1.12 5.98Q1.57 5.87 2.31 5.74Q3.05 5.61 4.02 5.61L4.02 5.61Q4.89 5.61 5.46 5.86Q6.03 6.10 6.38 6.54Q6.72 6.99 6.86 7.60Q7 8.22 7 8.96L7 8.96L7 13.05L5.70 13.05L5.70 9.24Q5.70 8.57 5.61 8.09Q5.52 7.62 5.31 7.32Q5.10 7.03 4.75 6.89Q4.40 6.76 3.88 6.76L3.88 6.76Q3.67 6.76 3.44 6.78Q3.22 6.79 3.02 6.81Q2.81 6.83 2.65 6.86Q2.49 6.89 2.42 6.90L2.42 6.90L2.42 13.05L1.12 13.05ZM11.62 12.11L11.62 12.11Q12.08 12.11 12.44 12.09Q12.80 12.07 13.03 12.01L13.03 12.01L13.03 9.84Q12.89 9.77 12.58 9.72Q12.26 9.67 11.82 9.67L11.82 9.67Q11.52 9.67 11.19 9.72Q10.86 9.76 10.59 9.89Q10.32 10.02 10.14 10.25Q9.95 10.49 9.95 10.86L9.95 10.86Q9.95 11.56 10.40 11.84Q10.85 12.11 11.62 12.11ZM11.51 5.59L11.51 5.59Q12.29 5.59 12.83 5.79Q13.37 5.99 13.70 6.36Q14.03 6.73 14.17 7.25Q14.31 7.76 14.31 8.37L14.31 8.37L14.31 12.92Q14.14 12.95 13.84 13.00Q13.54 13.05 13.16 13.09Q12.78 13.13 12.34 13.17Q11.90 13.20 11.47 13.20L11.47 13.20Q10.85 13.20 10.33 13.08Q9.81 12.95 9.44 12.68Q9.06 12.40 8.85 11.96Q8.64 11.51 8.64 10.88L8.64 10.88Q8.64 10.28 8.88 9.84Q9.13 9.41 9.55 9.14Q9.97 8.88 10.53 8.75Q11.09 8.62 11.70 8.62L11.70 8.62Q11.90 8.62 12.11 8.64Q12.32 8.67 12.51 8.70Q12.70 8.74 12.84 8.76Q12.98 8.79 13.03 8.81L13.03 8.81L13.03 8.44Q13.03 8.12 12.96 7.80Q12.89 7.49 12.71 7.25Q12.53 7 12.21 6.85Q11.90 6.71 11.40 6.71L11.40 6.71Q10.75 6.71 10.27 6.80Q9.79 6.89 9.55 6.99L9.55 6.99L9.39 5.91Q9.65 5.80 10.23 5.69Q10.82 5.59 11.51 5.59ZM17.68 3.51L17.68 5.77L20.44 5.77L20.44 6.86L17.68 6.86L17.68 10.22Q17.68 10.77 17.77 11.12Q17.85 11.48 18.02 11.68Q18.19 11.89 18.44 11.97Q18.69 12.05 19.03 12.05L19.03 12.05Q19.61 12.05 19.97 11.92Q20.33 11.79 20.47 11.73L20.47 11.73L20.72 12.81Q20.52 12.91 20.03 13.05Q19.54 13.20 18.91 13.20L18.91 13.20Q18.17 13.20 17.69 13.01Q17.21 12.82 16.91 12.45Q16.62 12.07 16.50 11.52Q16.38 10.96 16.38 10.23L16.38 10.23L16.38 3.74L17.68 3.51ZM23.39 13.05L22.09 13.05L22.09 2.41L23.39 2.18L23.39 5.91Q23.76 5.77 24.17 5.69Q24.58 5.61 24.99 5.61L24.99 5.61Q25.86 5.61 26.43 5.86Q27.01 6.10 27.35 6.54Q27.69 6.99 27.83 7.60Q27.97 8.22 27.97 8.96L27.97 8.96L27.97 13.05L26.67 13.05L26.67 9.24Q26.67 8.57 26.58 8.09Q26.49 7.62 26.28 7.32Q26.07 7.03 25.72 6.89Q25.37 6.76 24.85 6.76L24.85 6.76Q24.64 6.76 24.42 6.79Q24.19 6.82 23.99 6.85Q23.79 6.89 23.63 6.93Q23.46 6.97 23.39 7L23.39 7L23.39 13.05ZM32.55 12.11L32.55 12.11Q33.01 12.11 33.37 12.09Q33.73 12.07 33.96 12.01L33.96 12.01L33.96 9.84Q33.82 9.77 33.51 9.72Q33.19 9.67 32.75 9.67L32.75 9.67Q32.45 9.67 32.12 9.72Q31.79 9.76 31.52 9.89Q31.25 10.02 31.07 10.25Q30.88 10.49 30.88 10.86L30.88 10.86Q30.88 11.56 31.33 11.84Q31.78 12.11 32.55 12.11ZM32.44 5.59L32.44 5.59Q33.22 5.59 33.76 5.79Q34.30 5.99 34.63 6.36Q34.96 6.73 35.10 7.25Q35.24 7.76 35.24 8.37L35.24 8.37L35.24 12.92Q35.07 12.95 34.77 13.00Q34.47 13.05 34.09 13.09Q33.71 13.13 33.27 13.17Q32.83 13.20 32.40 13.20L32.40 13.20Q31.78 13.20 31.26 13.08Q30.74 12.95 30.37 12.68Q29.99 12.40 29.78 11.96Q29.57 11.51 29.57 10.88L29.57 10.88Q29.57 10.28 29.81 9.84Q30.06 9.41 30.48 9.14Q30.90 8.88 31.46 8.75Q32.02 8.62 32.63 8.62L32.63 8.62Q32.83 8.62 33.04 8.64Q33.25 8.67 33.44 8.70Q33.63 8.74 33.77 8.76Q33.91 8.79 33.96 8.81L33.96 8.81L33.96 8.44Q33.96 8.12 33.89 7.80Q33.82 7.49 33.64 7.25Q33.46 7 33.15 6.85Q32.83 6.71 32.33 6.71L32.33 6.71Q31.68 6.71 31.20 6.80Q30.72 6.89 30.48 6.99L30.48 6.99L30.32 5.91Q30.58 5.80 31.16 5.69Q31.75 5.59 32.44 5.59ZM37.39 13.05L37.39 5.98Q37.84 5.87 38.58 5.74Q39.33 5.61 40.29 5.61L40.29 5.61Q41.16 5.61 41.73 5.86Q42.31 6.10 42.65 6.54Q42.99 6.99 43.13 7.60Q43.27 8.22 43.27 8.96L43.27 8.96L43.27 13.05L41.97 13.05L41.97 9.24Q41.97 8.57 41.88 8.09Q41.79 7.62 41.58 7.32Q41.37 7.03 41.02 6.89Q40.67 6.76 40.15 6.76L40.15 6.76Q39.94 6.76 39.72 6.78Q39.49 6.79 39.29 6.81Q39.09 6.83 38.93 6.86Q38.77 6.89 38.70 6.90L38.70 6.90L38.70 13.05L37.39 13.05ZM52.32 13.05L51.18 13.05Q50.79 12.04 50.35 10.75Q49.91 9.45 49.55 8.05L49.55 8.05Q49.18 9.45 48.75 10.75Q48.31 12.04 47.92 13.05L47.92 13.05L46.79 13.05Q46.14 11.61 45.53 9.76Q44.91 7.91 44.37 5.77L44.37 5.77L45.77 5.77Q45.91 6.43 46.10 7.20Q46.30 7.97 46.52 8.74Q46.73 9.51 46.97 10.22Q47.21 10.93 47.42 11.47L47.42 11.47Q47.66 10.81 47.89 10.07Q48.12 9.34 48.33 8.59Q48.54 7.84 48.73 7.12Q48.92 6.40 49.06 5.77L49.06 5.77L50.13 5.77Q50.26 6.40 50.44 7.12Q50.62 7.84 50.83 8.59Q51.04 9.34 51.28 10.07Q51.51 10.81 51.74 11.47L51.74 11.47Q51.95 10.93 52.19 10.22Q52.42 9.51 52.64 8.74Q52.86 7.97 53.06 7.20Q53.26 6.43 53.40 5.77L53.40 5.77L54.74 5.77Q54.19 7.91 53.58 9.76Q52.96 11.61 52.32 13.05L52.32 13.05ZM55.71 9.42L55.71 9.42Q55.71 8.46 55.99 7.74Q56.27 7.01 56.73 6.54Q57.19 6.06 57.79 5.82Q58.39 5.59 59.02 5.59L59.02 5.59Q60.49 5.59 61.28 6.50Q62.06 7.42 62.06 9.30L62.06 9.30Q62.06 9.38 62.06 9.51Q62.06 9.65 62.05 9.76L62.05 9.76L57.06 9.76Q57.15 10.89 57.72 11.48Q58.30 12.07 59.51 12.07L59.51 12.07Q60.20 12.07 60.67 11.95Q61.14 11.83 61.38 11.72L61.38 11.72L61.56 12.81Q61.32 12.94 60.73 13.08Q60.13 13.22 59.37 13.22L59.37 13.22Q58.42 13.22 57.73 12.93Q57.04 12.64 56.59 12.14Q56.14 11.63 55.92 10.94Q55.71 10.25 55.71 9.42ZM57.09 8.71L60.70 8.71Q60.72 7.83 60.26 7.26Q59.81 6.69 59.01 6.69L59.01 6.69Q58.56 6.69 58.22 6.87Q57.88 7.04 57.64 7.32Q57.40 7.60 57.27 7.97Q57.13 8.33 57.09 8.71L57.09 8.71ZM65.24 2.18L65.24 6.09Q65.48 5.94 65.96 5.77Q66.44 5.60 67.07 5.60L67.07 5.60Q67.86 5.60 68.47 5.88Q69.08 6.16 69.50 6.66Q69.92 7.17 70.13 7.87Q70.35 8.57 70.35 9.41L70.35 9.41Q70.35 10.29 70.09 11.00Q69.83 11.70 69.36 12.19Q68.88 12.68 68.21 12.95Q67.54 13.22 66.70 13.22L66.70 13.22Q65.79 13.22 65.09 13.09Q64.39 12.96 63.94 12.84L63.94 12.84L63.94 2.41L65.24 2.18ZM65.24 7.31L65.24 11.91Q65.44 11.97 65.79 12.02Q66.15 12.07 66.68 12.07L66.68 12.07Q67.73 12.07 68.36 11.38Q68.99 10.68 68.99 9.41L68.99 9.41Q68.99 8.85 68.88 8.36Q68.77 7.87 68.52 7.51Q68.26 7.15 67.87 6.95Q67.47 6.75 66.91 6.75L66.91 6.75Q66.37 6.75 65.93 6.93Q65.48 7.11 65.24 7.31L65.24 7.31ZM73.72 12.29L73.72 12.29Q73.72 12.67 73.47 12.95Q73.22 13.23 72.79 13.23L72.79 13.23Q72.35 13.23 72.10 12.95Q71.85 12.67 71.85 12.29L71.85 12.29Q71.85 11.91 72.10 11.63Q72.35 11.35 72.79 11.35L72.79 11.35Q73.22 11.35 73.47 11.63Q73.72 11.91 73.72 12.29ZM80.33 11.91L80.33 7.31Q80.09 7.11 79.65 6.93Q79.20 6.75 78.67 6.75L78.67 6.75Q78.11 6.75 77.71 6.95Q77.31 7.15 77.06 7.51Q76.80 7.87 76.69 8.36Q76.58 8.85 76.58 9.41L76.58 9.41Q76.58 10.68 77.21 11.38Q77.84 12.07 78.89 12.07L78.89 12.07Q79.42 12.07 79.78 12.02Q80.14 11.97 80.33 11.91L80.33 11.91ZM80.33 6.09L80.33 2.41L81.63 2.18L81.63 12.84Q81.19 12.96 80.49 13.09Q79.79 13.22 78.88 13.22L78.88 13.22Q78.04 13.22 77.36 12.95Q76.69 12.68 76.22 12.19Q75.74 11.70 75.48 11.00Q75.22 10.29 75.22 9.41L75.22 9.41Q75.22 8.57 75.44 7.87Q75.66 7.17 76.08 6.66Q76.50 6.16 77.11 5.88Q77.71 5.60 78.50 5.60L78.50 5.60Q79.13 5.60 79.61 5.77Q80.09 5.94 80.33 6.09L80.33 6.09ZM83.47 9.42L83.47 9.42Q83.47 8.46 83.75 7.74Q84.03 7.01 84.49 6.54Q84.95 6.06 85.55 5.82Q86.16 5.59 86.79 5.59L86.79 5.59Q88.26 5.59 89.04 6.50Q89.82 7.42 89.82 9.30L89.82 9.30Q89.82 9.38 89.82 9.51Q89.82 9.65 89.81 9.76L89.81 9.76L84.83 9.76Q84.91 10.89 85.48 11.48Q86.06 12.07 87.28 12.07L87.28 12.07Q87.96 12.07 88.43 11.95Q88.90 11.83 89.14 11.72L89.14 11.72L89.32 12.81Q89.08 12.94 88.49 13.08Q87.89 13.22 87.14 13.22L87.14 13.22Q86.18 13.22 85.49 12.93Q84.80 12.64 84.35 12.14Q83.90 11.63 83.69 10.94Q83.47 10.25 83.47 9.42ZM84.85 8.71L88.47 8.71Q88.48 7.83 88.03 7.26Q87.57 6.69 86.77 6.69L86.77 6.69Q86.32 6.69 85.98 6.87Q85.64 7.04 85.40 7.32Q85.16 7.60 85.03 7.97Q84.90 8.33 84.85 8.71L84.85 8.71ZM96.04 5.77L97.38 5.77Q96.84 7.81 96.10 9.69Q95.37 11.56 94.68 13.05L94.68 13.05L93.51 13.05Q92.82 11.56 92.09 9.69Q91.35 7.81 90.80 5.77L90.80 5.77L92.20 5.77Q92.37 6.45 92.60 7.23Q92.83 8.01 93.09 8.77Q93.35 9.53 93.62 10.25Q93.88 10.96 94.12 11.52L94.12 11.52Q94.36 10.96 94.63 10.25Q94.89 9.53 95.15 8.77Q95.41 8.01 95.64 7.23Q95.87 6.45 96.04 5.77L96.04 5.77Z"></path></g><!----><g data-v-423bf9ae="" id="1351f7f6-c81b-4a18-880f-ff98eda9d82c" transform="matrix(1.0227272727272727,0,0,1.0227272727272727,0.8636363636363669,-6.136363636363633)" stroke="none" fill="white"><path d="M41.751 59.098v6.119L20 55.789v-5.232l21.751-9.427v6.162l-15.156 5.839 15.156 5.967zM55.2 41l-6.055 24.93a30.668 30.668 0 01-.529 1.946c-.151.476-.382.849-.691 1.112-.31.268-.761.4-1.352.4-1.47 0-2.206-.636-2.206-1.902 0-.332.145-1.16.433-2.486l6.033-24.93c.317-1.326.619-2.234.907-2.724.289-.49.851-.735 1.688-.735.721 0 1.271.173 1.653.519.382.346.573.822.573 1.427 0 .447-.152 1.261-.454 2.443zM80 55.789L58.249 65.26v-6.119l15.2-5.967-15.2-5.882v-6.076L80 50.6v5.189z"></path><path d="M94 6H6a6 6 0 00-6 6v76a6 6 0 006 6h88a6 6 0 006-6V12a6 6 0 00-6-6zm-15 4c2.205 0 4 1.794 4 4s-1.795 4-4 4-4-1.794-4-4 1.795-4 4-4zm-11 0c2.205 0 4 1.794 4 4s-1.795 4-4 4-4-1.794-4-4 1.795-4 4-4zm26 78H6V22h88v66zm-4-70c-2.205 0-4-1.794-4-4s1.795-4 4-4 4 1.794 4 4-1.795 4-4 4z"></path></g><!----></svg>